<svg width="30" height="30" viewBox="0 0 30 30" fill="none" xmlns="http://www.w3.org/2000/svg">
<circle cx="15" cy="15" r="15" fill="#101010"/>
<mask id="mask0_831_2" style="mask-type:alpha" maskUnits="userSpaceOnUse" x="0" y="0" width="30" height="30">
<circle cx="15" cy="15" r="15" fill="#101010"/>
</mask>
<g mask="url(#mask0_831_2)">
<path d="M10.2346 2.50187H4.19882L0 28.8985H3.78643L4.49873 24.1094H9.55981L10.2721 28.8985H14.4334L10.2346 2.50187ZM7.01053 7.17785L8.99747 20.527H5.02359L7.01053 7.17785Z" fill="#FEFEFE"/>
<path d="M22.2266 17.9628H24.1011V22.8273C24.1011 24.7128 23.2763 25.3915 21.9642 25.3915C20.6521 25.3915 19.8273 24.7128 19.8273 22.8273V8.5731C19.8273 6.68762 20.6521 5.97114 21.9642 5.97114C23.2763 5.97114 24.1011 6.68762 24.1011 8.5731V11.4013H28V8.83707C28 4.6136 25.9006 2.2002 21.8517 2.2002C17.8029 2.2002 15.7035 4.6136 15.7035 8.83707V22.5633C15.7035 26.7868 17.8029 29.2002 21.8517 29.2002C25.9006 29.2002 28 26.7868 28 22.5633V14.1918H22.2266V17.9628Z" fill="#FEFEFE"/>
</g>
</svg>
