<svg width="82" height="30" viewBox="0 0 82 30" fill="none" xmlns="http://www.w3.org/2000/svg">
<g clip-path="url(#clip0_840_40)">
<path d="M42.335 9.93708L46.2363 9.68866C46.3253 10.317 46.4884 10.7846 46.7554 11.1207C47.1856 11.6468 47.7789 11.9098 48.5651 11.9098C49.1436 11.9098 49.6035 11.7783 49.915 11.5006C50.2117 11.2815 50.3897 10.9307 50.3897 10.5654C50.3897 10.2147 50.2265 9.87863 49.9447 9.65944C49.648 9.39641 48.9508 9.13338 47.8531 8.89958C46.0583 8.50503 44.7677 7.97897 44.0112 7.30678C43.2547 6.67843 42.8245 5.75783 42.8542 4.77878C42.8542 4.10659 43.0619 3.4344 43.4475 2.87912C43.8925 2.25077 44.5007 1.75393 45.2276 1.47629C46.0138 1.1402 47.1114 0.964844 48.491 0.964844C50.182 0.964844 51.4725 1.27171 52.3625 1.90006C53.2525 2.5138 53.7865 3.50746 53.9497 4.86645L50.093 5.08564C49.9892 4.50113 49.7815 4.07736 49.4403 3.79972C49.0991 3.52208 48.6541 3.39056 48.0756 3.39056C47.6009 3.39056 47.2449 3.49285 47.0076 3.68282C46.7851 3.85817 46.6368 4.1212 46.6516 4.41346C46.6516 4.63265 46.7703 4.83723 46.9483 4.96874C47.1411 5.14409 47.6009 5.30483 48.3278 5.45096C50.1226 5.83089 51.3983 6.21083 52.1845 6.60537C52.9707 6.99992 53.5344 7.48214 53.8755 8.05203C54.2316 8.63654 54.4096 9.30873 54.3947 9.99553C54.3947 10.8138 54.1574 11.6322 53.6827 12.319C53.1932 13.035 52.5109 13.5903 51.7098 13.9264C50.8643 14.2917 49.7963 14.4817 48.5206 14.4817C46.2659 14.4817 44.7084 14.0579 43.8332 13.1957C42.958 12.3336 42.4389 11.2522 42.335 9.93708ZM0.934515 14.2625V1.19865H7.77279C9.03365 1.19865 10.0127 1.30094 10.6802 1.52013C11.3329 1.72471 11.9114 2.14848 12.297 2.71838C12.7272 3.34672 12.9349 4.07736 12.92 4.83723C12.9645 6.12315 12.297 7.35062 11.1548 7.99358C10.7098 8.242 10.2203 8.41735 9.71599 8.50503C10.0868 8.60732 10.4577 8.78267 10.784 8.98725C11.0362 9.19183 11.2438 9.42563 11.4367 9.67405C11.6592 9.92247 11.852 10.2001 12.0152 10.4924L14.0029 14.2771H9.34515L7.14978 10.2586C6.86795 9.74711 6.63061 9.41102 6.4081 9.25028C6.11143 9.0457 5.75543 8.94341 5.39942 8.94341H5.04342V14.2478H0.934515V14.2625ZM5.04342 6.48847H6.77894C7.14978 6.45924 7.50579 6.40079 7.8618 6.31312C8.1288 6.26928 8.36614 6.12315 8.52931 5.90396C8.92981 5.3779 8.87048 4.63265 8.38097 4.17965C8.11397 3.96046 7.59479 3.84356 6.85311 3.84356H5.04342V6.48847ZM0 25.4558L3.90123 25.2074C3.99023 25.8358 4.1534 26.3034 4.42041 26.6395C4.83575 27.1655 5.44392 27.4432 6.2301 27.4432C6.80861 27.4432 7.26845 27.3117 7.57996 27.034C7.87663 26.8002 8.05463 26.4641 8.05463 26.0988C8.05463 25.7481 7.89146 25.412 7.60962 25.1928C7.31295 24.9298 6.61577 24.6667 5.50326 24.4329C3.70839 24.0384 2.41787 23.5123 1.66136 22.8402C0.904848 22.2118 0.474674 21.2912 0.504342 20.3121C0.504342 19.64 0.712012 18.9678 1.09768 18.4125C1.54269 17.7841 2.15087 17.2873 2.87771 17.0097C3.66389 16.6736 4.76158 16.4982 6.1411 16.4982C7.83213 16.4982 9.12265 16.8051 10.0127 17.4334C10.9027 18.0618 11.4219 19.0408 11.585 20.3998L7.72829 20.619C7.62446 20.0345 7.41679 19.6107 7.07562 19.3331C6.74928 19.0554 6.28944 18.9239 5.71093 18.9385C5.23625 18.9385 4.88025 19.0408 4.64291 19.2454C4.40557 19.4208 4.27207 19.6838 4.2869 19.976C4.2869 20.1952 4.40557 20.3998 4.58357 20.5313C4.77641 20.7067 5.23625 20.8674 5.9631 21.0136C7.75796 21.3935 9.03365 21.7734 9.81983 22.168C10.606 22.5625 11.1697 23.0447 11.5109 23.6146C11.8669 24.1991 12.0449 24.8713 12.0449 25.5435C12.0449 26.3618 11.7927 27.1655 11.3329 27.8523C10.8433 28.5684 10.161 29.1236 9.35999 29.4597C8.51447 29.8251 7.44645 30.015 6.17077 30.015C3.91606 30.015 2.35854 29.5912 1.48336 28.7291C0.608177 27.8523 0.118669 26.771 0 25.4558H0Z" fill="#F8F8F8"/>
<path d="M19.7295 24.4328L23.3193 25.4995C23.1264 26.3909 22.7259 27.2384 22.1771 27.9837C21.6727 28.6413 21.0052 29.1527 20.2487 29.4888C19.4774 29.8249 18.4984 30.0002 17.3117 30.0002C15.8728 30.0002 14.6861 29.7957 13.7813 29.3865C12.8616 28.9773 12.0754 28.2467 11.4079 27.2092C10.7404 26.1717 10.4141 24.8419 10.4141 23.2199C10.4141 21.0572 10.9926 19.3914 12.1644 18.237C13.3363 17.0826 14.9828 16.498 17.1188 16.498C18.795 16.498 20.1004 16.8341 21.0646 17.4917C22.0139 18.1639 22.7259 19.1868 23.2006 20.5604L19.5812 21.3495C19.4922 21.0426 19.3587 20.7357 19.1807 20.4727C18.9582 20.1659 18.6764 19.932 18.3352 19.7567C17.994 19.5813 17.6083 19.5083 17.2227 19.5083C16.2882 19.5083 15.5761 19.8736 15.0866 20.6188C14.7158 21.1595 14.523 22.0217 14.523 23.1907C14.523 24.6374 14.7455 25.631 15.1905 26.1717C15.6355 26.7124 16.2585 26.9754 17.0743 26.9754C17.8605 26.9754 18.4539 26.7562 18.8544 26.3324C19.2549 25.8794 19.5515 25.2511 19.7295 24.4328ZM28.1105 16.7172H32.2046V21.291H36.6843V16.7172H40.8081V29.781H36.6843V24.4912H32.2046V29.781H28.1105V16.7172V16.7172Z" fill="#F8F8F8"/>
<path d="M40.2441 23.2491C40.2441 21.1156 40.8523 19.4498 42.0538 18.2662C43.2554 17.0825 44.9464 16.4834 47.0973 16.4834C49.3075 16.4834 50.9985 17.0679 52.2 18.2369C53.4015 19.406 53.9949 21.0426 53.9949 23.1468C53.9949 24.6812 53.7279 25.9232 53.2087 26.9023C52.7043 27.8667 51.9182 28.6558 50.954 29.1819C49.9601 29.7226 48.7289 30.0002 47.2604 30.0002C45.7622 30.0002 44.531 29.7664 43.552 29.2988C42.5433 28.802 41.7127 28.0275 41.1638 27.0777C40.5556 26.0548 40.2441 24.7834 40.2441 23.2491ZM44.3382 23.2637C44.3382 24.5789 44.5904 25.5287 45.0799 26.1132C45.5694 26.6831 46.2517 26.9754 47.1121 26.9754C47.9873 26.9754 48.6696 26.6977 49.1591 26.1278C49.6486 25.5579 49.886 24.5496 49.886 23.0884C49.886 21.8609 49.6338 20.9549 49.1295 20.3996C48.6251 19.8297 47.9428 19.5521 47.0824 19.5521C46.3259 19.5229 45.5991 19.8443 45.0947 20.4142C44.5904 20.9841 44.3382 21.934 44.3382 23.2637V23.2637ZM58.1928 23.2491C58.1928 21.1156 58.8009 19.4498 60.0025 18.2662C61.204 17.0825 62.895 16.4834 65.0459 16.4834C67.2561 16.4834 68.9619 17.0679 70.1486 18.2369C71.3353 19.406 71.9435 21.0426 71.9435 23.1468C71.9435 24.6812 71.6765 25.9232 71.1573 26.9023C70.653 27.8667 69.8668 28.6558 68.9026 29.1819C67.9088 29.7226 66.6776 30.0002 65.2091 30.0002C63.7109 30.0002 62.4797 29.7664 61.5007 29.2988C60.492 28.802 59.6613 28.0275 59.1125 27.0777C58.5043 26.0548 58.1928 24.7834 58.1928 23.2491V23.2491ZM62.2868 23.2637C62.2868 24.5789 62.539 25.5287 63.0285 26.1132C63.518 26.6831 64.2004 26.9754 65.0607 26.9754C65.9359 26.9754 66.6182 26.6977 67.1077 26.1278C67.5973 25.5579 67.8346 24.5496 67.8346 23.0884C67.8346 21.8609 67.5824 20.9549 67.0781 20.3996C66.5737 19.8297 65.8914 19.5521 65.031 19.5521C64.2745 19.5229 63.5329 19.8443 63.0434 20.4142C62.539 20.9841 62.2868 21.934 62.2868 23.2637V23.2637Z" fill="#F8F8F8"/>
<path d="M71.5129 16.7168H75.6069V26.5658H82.0002V29.7806H71.498V16.7168H71.5129Z" fill="#F8F8F8"/>
<path d="M67.001 15.9629C71.1228 12.903 72.3939 7.71591 69.8399 4.37728C67.286 1.03865 61.8742 0.812711 57.7523 3.87262C53.6305 6.93254 52.3594 12.1196 54.9134 15.4582C57.4673 18.7968 62.8791 19.0228 67.001 15.9629Z" stroke="#F8F8F8" stroke-miterlimit="10"/>
<path d="M58.2069 8.95759L59.6903 7.9347L61.5148 10.4919C61.8263 10.9011 62.0637 11.3395 62.2417 11.8217C62.3455 12.187 62.3158 12.5816 62.1675 12.9323C61.9747 13.3706 61.6632 13.736 61.2478 13.999C60.7583 14.3351 60.343 14.5251 59.987 14.5835C59.6458 14.642 59.2898 14.5835 58.9634 14.4374C58.6074 14.262 58.2959 14.0136 58.0586 13.6921L59.3343 12.5231C59.4381 12.6838 59.5716 12.83 59.72 12.9469C59.8238 13.0199 59.9425 13.0638 60.076 13.0638C60.1798 13.0638 60.2836 13.0199 60.3578 12.9615C60.5061 12.8738 60.61 12.6985 60.5951 12.5231C60.5506 12.2747 60.4468 12.0263 60.2836 11.8363L58.2069 8.95759V8.95759ZM62.657 10.5796L64.0069 9.52749C64.1552 9.70284 64.348 9.83436 64.5557 9.90742C64.8524 9.9951 65.1639 9.93665 65.4161 9.74668C65.5941 9.62978 65.7424 9.46904 65.8017 9.26446C65.8907 9.00143 65.7424 8.70918 65.4754 8.6215C65.4309 8.60689 65.3864 8.59227 65.3419 8.59227C65.1639 8.57766 64.8524 8.65072 64.3925 8.84069C63.636 9.14756 63.0427 9.26446 62.5977 9.22062C62.1675 9.17678 61.767 8.95759 61.5297 8.59227C61.3516 8.34386 61.2626 8.0516 61.2478 7.75935C61.2478 7.42325 61.3368 7.08716 61.5297 6.80952C61.8115 6.41497 62.1527 6.07888 62.568 5.81585C63.191 5.39208 63.7399 5.1875 64.2145 5.1875C64.6892 5.1875 65.1342 5.40669 65.5496 5.85969L64.2145 6.89719C63.9475 6.5611 63.4432 6.48804 63.102 6.75107L63.0575 6.7949C62.9092 6.88258 62.8053 7.01409 62.746 7.17484C62.7015 7.29174 62.7312 7.42325 62.8053 7.52554C62.8647 7.59861 62.9537 7.65706 63.0575 7.65706C63.1762 7.67167 63.3838 7.61322 63.6805 7.4817C64.4222 7.17484 64.9859 6.99948 65.3716 6.94103C65.6979 6.88258 66.0391 6.91181 66.3506 7.04332C66.6324 7.16022 66.8697 7.3648 67.0329 7.61322C67.2406 7.90547 67.3593 8.25618 67.3741 8.6215C67.3889 9.00143 67.2851 9.36675 67.0774 9.68823C66.8104 10.0828 66.4692 10.4189 66.0687 10.6819C65.2529 11.2372 64.5854 11.471 64.0514 11.3833C63.4729 11.2956 62.9982 11.0034 62.657 10.5796V10.5796Z" fill="#F8F8F8"/>
</g>
<defs>
<clipPath id="clip0_840_40">
<rect width="82" height="30" fill="white"/>
</clipPath>
</defs>
</svg>
